# Blender v2.80 (sub 75) OBJ File: ''
# www.blender.org
mtllib Object3.mtl
o Object3
v 8.000002 0.500000 -5.000001
v 8.000002 -0.500000 -5.000001
v -8.000002 -0.500000 -5.000001
v -8.000002 0.500000 -5.000001
v -6.684042 -0.500000 -2.879385
v -8.347298 -0.500000 -4.969616
v -6.347298 -0.500000 -2.969616
v 6.000001 -0.500000 -3.000000
v -6.000001 -0.500000 -3.000000
v 7.000002 -0.500000 -2.732051
v 6.684042 -0.500000 -2.879385
v 6.347298 -0.500000 -2.969616
v 8.347298 -0.500000 -4.969616
v 8.347298 0.500000 -4.969616
v -7.000002 -0.500000 -2.732051
v -8.684043 -0.500000 -4.879386
v -8.347298 0.500000 -4.969616
v 8.684043 -0.500000 -4.879386
v 8.684043 0.500000 -4.879386
v -7.285578 -0.500000 -2.532089
v -9.000002 -0.500000 -4.732051
v -8.684043 0.500000 -4.879386
v 7.285578 -0.500000 -2.532089
v 9.000002 -0.500000 -4.732051
v 9.000002 0.500000 -4.732051
v -9.285578 -0.500000 -4.532090
v -9.000002 0.500000 -4.732051
v 9.285578 -0.500000 -4.532090
v 9.285578 0.500000 -4.532090
v -9.532091 -0.500000 -4.285576
v -9.285578 0.500000 -4.532090
v 9.532091 -0.500000 -4.285576
v 9.532091 0.500000 -4.285576
v -9.732053 -0.500000 -4.000000
v -9.532091 0.500000 -4.285576
v 9.732054 -0.500000 -4.000000
v 7.532091 -0.500000 -2.285575
v 9.732054 0.500000 -4.000000
v -7.532091 -0.500000 -2.285575
v -9.879387 -0.500000 -3.684041
v -9.732053 0.500000 -4.000000
v 9.879388 -0.500000 -3.684041
v 9.879388 0.500000 -3.684041
v -7.732053 -0.500000 -2.000000
v -9.969618 -0.500000 -3.347296
v -9.879387 0.500000 -3.684041
v 9.969618 -0.500000 -3.347296
v 7.732053 -0.500000 -2.000000
v 9.969618 0.500000 -3.347296
v -10.000002 -0.500000 -3.000000
v -9.969618 0.500000 -3.347296
v 10.000002 -0.500000 -3.000000
v 7.879387 -0.500000 -1.684040
v 10.000002 0.500000 -3.000000
v -10.000002 -0.500000 3.000001
v -10.000002 0.500000 -3.000000
v -7.879387 -0.500000 -1.684040
v -7.969617 -0.500000 -1.347296
v -8.000002 -0.500000 -1.000000
v -6.000001 0.500000 -3.000000
v 6.000001 0.500000 -3.000000
v 6.347298 0.500000 -2.969616
v 10.000002 0.500000 3.000001
v 10.000002 -0.500000 3.000001
v 7.969617 -0.500000 -1.347296
v 8.000002 -0.500000 1.000001
v 8.000002 -0.500000 -1.000000
v -6.347298 0.500000 -2.969616
v 6.684042 0.500000 -2.879385
v -6.684042 0.500000 -2.879385
v 7.000002 0.500000 -2.732051
v -7.000002 0.500000 -2.732051
v 7.285578 0.500000 -2.532089
v -7.285578 0.500000 -2.532089
v 7.532091 0.500000 -2.285575
v -7.532091 0.500000 -2.285575
v 7.732053 0.500000 -2.000000
v -7.732053 0.500000 -2.000000
v 7.879387 0.500000 -1.684040
v -7.879387 0.500000 -1.684040
v 7.969617 0.500000 -1.347296
v -7.969617 0.500000 -1.347296
v 8.000002 0.500000 -1.000000
v -8.000002 -0.500000 1.000001
v -8.000002 0.500000 1.000001
v -8.000002 0.500000 -1.000000
v -7.969617 -0.500000 1.347297
v 7.969617 -0.500000 1.347297
v 8.000002 0.500000 1.000001
v 7.969617 0.500000 1.347297
v -7.879387 -0.500000 1.684041
v -7.969617 0.500000 1.347297
v 7.879387 -0.500000 1.684041
v 7.879387 0.500000 1.684041
v -9.969618 -0.500000 3.347297
v -7.732053 -0.500000 2.000001
v -7.879387 0.500000 1.684041
v 7.732053 -0.500000 2.000001
v 7.732053 0.500000 2.000001
v -9.879387 -0.500000 3.684041
v -7.532091 -0.500000 2.285576
v -7.732053 0.500000 2.000001
v 9.879388 -0.500000 3.684041
v 7.532091 -0.500000 2.285576
v 9.969618 -0.500000 3.347297
v 7.532091 0.500000 2.285576
v -9.732053 -0.500000 4.000001
v -9.532091 -0.500000 4.285576
v -7.285578 -0.500000 2.532090
v -9.000002 -0.500000 4.732053
v -9.285578 -0.500000 4.532090
v -7.532091 0.500000 2.285576
v 9.732054 -0.500000 4.000001
v 9.532091 -0.500000 4.285576
v 9.285578 -0.500000 4.532090
v 7.285578 -0.500000 2.532090
v 7.285578 0.500000 2.532090
v -7.000002 -0.500000 2.732052
v -8.684043 -0.500000 4.879387
v -7.285578 0.500000 2.532090
v 8.684043 -0.500000 4.879387
v 7.000002 -0.500000 2.732052
v 9.000002 -0.500000 4.732053
v 7.000002 0.500000 2.732052
v -6.684042 -0.500000 2.879386
v -8.000002 -0.500000 5.000001
v -8.347298 -0.500000 4.969617
v -7.000002 0.500000 2.732052
v 8.347298 -0.500000 4.969617
v 6.684042 -0.500000 2.879386
v 6.684042 0.500000 2.879386
v -6.347298 -0.500000 2.969617
v -6.684042 0.500000 2.879386
v 8.000002 -0.500000 5.000001
v 6.347298 -0.500000 2.969617
v 6.347298 0.500000 2.969617
v -6.000001 -0.500000 3.000001
v -6.347298 0.500000 2.969617
v 6.000001 -0.500000 3.000001
v 6.000001 0.500000 3.000001
v -10.000002 0.500000 3.000001
v -6.000001 0.500000 3.000001
v 9.969618 0.500000 3.347297
v -9.969618 0.500000 3.347297
v 9.879388 0.500000 3.684041
v -9.879387 0.500000 3.684041
v 9.732054 0.500000 4.000001
v -9.732053 0.500000 4.000001
v 9.532091 0.500000 4.285576
v -9.532091 0.500000 4.285576
v 9.285578 0.500000 4.532090
v -9.285578 0.500000 4.532090
v 9.000002 0.500000 4.732053
v -9.000002 0.500000 4.732053
v 8.684043 0.500000 4.879387
v -8.684043 0.500000 4.879387
v 8.347298 0.500000 4.969617
v -8.347298 0.500000 4.969617
v 8.000002 0.500000 5.000001
v -8.000002 0.500000 5.000001
vn 0.0000 0.0000 -1.0000
vn -0.0000 -1.0000 0.0000
vn -0.0872 0.0000 -0.9962
vn 0.0872 0.0000 -0.9962
vn -0.2588 0.0000 -0.9659
vn 0.2588 0.0000 -0.9659
vn -0.4226 0.0000 -0.9063
vn 0.4226 0.0000 -0.9063
vn -0.5736 0.0000 -0.8192
vn 0.5736 0.0000 -0.8192
vn -0.7071 0.0000 -0.7071
vn 0.7071 0.0000 -0.7071
vn -0.8192 0.0000 -0.5736
vn 0.8192 0.0000 -0.5736
vn -0.9063 0.0000 -0.4226
vn 0.9063 0.0000 -0.4226
vn -0.9659 0.0000 -0.2588
vn 0.9659 0.0000 -0.2588
vn -0.9962 0.0000 -0.0872
vn 0.9962 0.0000 -0.0872
vn -1.0000 0.0000 0.0000
vn 0.0000 0.0000 1.0000
vn 0.0872 0.0000 0.9962
vn -0.0872 0.0000 0.9962
vn 1.0000 0.0000 0.0000
vn 0.2588 0.0000 0.9659
vn -0.2588 0.0000 0.9659
vn 0.4226 0.0000 0.9063
vn -0.4226 0.0000 0.9063
vn 0.5736 0.0000 0.8192
vn -0.5736 0.0000 0.8192
vn 0.7071 0.0000 0.7071
vn -0.7071 0.0000 0.7071
vn 0.8192 0.0000 0.5736
vn -0.8192 0.0000 0.5736
vn 0.9063 0.0000 0.4226
vn -0.9063 0.0000 0.4226
vn 0.9659 0.0000 0.2588
vn -0.9659 0.0000 0.2588
vn 0.9962 0.0000 0.0872
vn -0.9962 0.0000 0.0872
vn 0.0000 1.0000 0.0000
usemtl None
s off
f 1//1 2//1 3//1
f 4//1 1//1 3//1
f 5//2 6//2 3//2
f 7//2 5//2 3//2
f 2//2 8//2 3//2
f 8//2 9//2 3//2
f 9//2 7//2 3//2
f 6//3 4//3 3//3
f 10//2 11//2 2//2
f 11//2 12//2 2//2
f 12//2 8//2 2//2
f 13//2 10//2 2//2
f 14//4 13//4 2//4
f 1//4 14//4 2//4
f 15//2 16//2 6//2
f 5//2 15//2 6//2
f 17//3 4//3 6//3
f 16//5 17//5 6//5
f 18//2 10//2 13//2
f 19//6 18//6 13//6
f 14//6 19//6 13//6
f 20//2 21//2 16//2
f 15//2 20//2 16//2
f 22//5 17//5 16//5
f 21//7 22//7 16//7
f 23//2 10//2 18//2
f 24//2 23//2 18//2
f 25//8 24//8 18//8
f 19//8 25//8 18//8
f 20//2 26//2 21//2
f 27//7 22//7 21//7
f 26//9 27//9 21//9
f 28//2 23//2 24//2
f 29//10 28//10 24//10
f 25//10 29//10 24//10
f 20//2 30//2 26//2
f 31//9 27//9 26//9
f 30//11 31//11 26//11
f 32//2 23//2 28//2
f 33//12 32//12 28//12
f 29//12 33//12 28//12
f 20//2 34//2 30//2
f 35//11 31//11 30//11
f 34//13 35//13 30//13
f 36//2 37//2 32//2
f 37//2 23//2 32//2
f 38//14 36//14 32//14
f 33//14 38//14 32//14
f 39//2 40//2 34//2
f 20//2 39//2 34//2
f 41//13 35//13 34//13
f 40//15 41//15 34//15
f 42//2 37//2 36//2
f 43//16 42//16 36//16
f 38//16 43//16 36//16
f 44//2 45//2 40//2
f 39//2 44//2 40//2
f 46//15 41//15 40//15
f 45//17 46//17 40//17
f 47//2 48//2 42//2
f 48//2 37//2 42//2
f 49//18 47//18 42//18
f 43//18 49//18 42//18
f 44//2 50//2 45//2
f 51//17 46//17 45//17
f 50//19 51//19 45//19
f 52//2 53//2 47//2
f 53//2 48//2 47//2
f 54//20 52//20 47//20
f 49//20 54//20 47//20
f 55//21 56//21 50//21
f 44//2 57//2 50//2
f 57//2 58//2 50//2
f 58//2 59//2 50//2
f 59//2 55//2 50//2
f 56//19 51//19 50//19
f 8//22 60//22 9//22
f 60//23 7//23 9//23
f 61//22 60//22 8//22
f 62//24 61//24 8//24
f 12//24 62//24 8//24
f 54//25 63//25 52//25
f 63//25 64//25 52//25
f 65//2 53//2 52//2
f 64//2 66//2 52//2
f 66//2 67//2 52//2
f 67//2 65//2 52//2
f 68//26 5//26 7//26
f 60//23 68//23 7//23
f 69//27 62//27 12//27
f 11//27 69//27 12//27
f 70//28 15//28 5//28
f 68//26 70//26 5//26
f 71//29 69//29 11//29
f 10//29 71//29 11//29
f 72//30 20//30 15//30
f 70//28 72//28 15//28
f 73//31 71//31 10//31
f 23//31 73//31 10//31
f 74//32 39//32 20//32
f 72//30 74//30 20//30
f 75//33 73//33 23//33
f 37//33 75//33 23//33
f 76//34 44//34 39//34
f 74//32 76//32 39//32
f 77//35 75//35 37//35
f 48//35 77//35 37//35
f 78//36 57//36 44//36
f 76//34 78//34 44//34
f 79//37 77//37 48//37
f 53//37 79//37 48//37
f 80//38 58//38 57//38
f 78//36 80//36 57//36
f 81//39 79//39 53//39
f 65//39 81//39 53//39
f 82//40 59//40 58//40
f 80//38 82//38 58//38
f 83//41 81//41 65//41
f 67//41 83//41 65//41
f 84//2 55//2 59//2
f 85//25 84//25 59//25
f 86//25 85//25 59//25
f 82//40 86//40 59//40
f 66//21 83//21 67//21
f 87//2 55//2 84//2
f 85//20 87//20 84//20
f 64//2 88//2 66//2
f 89//21 83//21 66//21
f 90//19 89//19 66//19
f 88//19 90//19 66//19
f 91//2 55//2 87//2
f 92//18 91//18 87//18
f 85//20 92//20 87//20
f 64//2 93//2 88//2
f 94//17 90//17 88//17
f 93//17 94//17 88//17
f 95//2 55//2 91//2
f 96//2 95//2 91//2
f 97//16 96//16 91//16
f 92//18 97//18 91//18
f 64//2 98//2 93//2
f 99//15 94//15 93//15
f 98//15 99//15 93//15
f 100//2 95//2 96//2
f 101//2 100//2 96//2
f 102//14 101//14 96//14
f 97//16 102//16 96//16
f 103//2 104//2 98//2
f 105//2 103//2 98//2
f 64//2 105//2 98//2
f 106//13 99//13 98//13
f 104//13 106//13 98//13
f 107//2 100//2 101//2
f 108//2 107//2 101//2
f 109//2 110//2 101//2
f 110//2 111//2 101//2
f 111//2 108//2 101//2
f 112//12 109//12 101//12
f 102//14 112//14 101//14
f 103//2 113//2 104//2
f 113//2 114//2 104//2
f 114//2 115//2 104//2
f 115//2 116//2 104//2
f 117//11 106//11 104//11
f 116//11 117//11 104//11
f 118//2 119//2 109//2
f 119//2 110//2 109//2
f 120//10 118//10 109//10
f 112//12 120//12 109//12
f 121//2 122//2 116//2
f 123//2 121//2 116//2
f 115//2 123//2 116//2
f 124//9 117//9 116//9
f 122//9 124//9 116//9
f 125//2 126//2 118//2
f 126//2 127//2 118//2
f 127//2 119//2 118//2
f 128//8 125//8 118//8
f 120//10 128//10 118//10
f 129//2 130//2 122//2
f 121//2 129//2 122//2
f 131//7 124//7 122//7
f 130//7 131//7 122//7
f 132//2 126//2 125//2
f 133//6 132//6 125//6
f 128//8 133//8 125//8
f 134//2 135//2 130//2
f 129//2 134//2 130//2
f 136//5 131//5 130//5
f 135//5 136//5 130//5
f 137//2 126//2 132//2
f 138//4 137//4 132//4
f 133//6 138//6 132//6
f 134//2 139//2 135//2
f 140//3 136//3 135//3
f 139//3 140//3 135//3
f 141//21 56//21 55//21
f 95//41 141//41 55//41
f 139//2 134//2 137//2
f 134//2 126//2 137//2
f 142//1 140//1 137//1
f 140//1 139//1 137//1
f 138//4 142//4 137//4
f 143//40 105//40 64//40
f 63//40 143//40 64//40
f 144//41 141//41 95//41
f 100//39 144//39 95//39
f 145//38 103//38 105//38
f 143//38 145//38 105//38
f 146//39 144//39 100//39
f 107//37 146//37 100//37
f 147//36 113//36 103//36
f 145//36 147//36 103//36
f 148//37 146//37 107//37
f 108//35 148//35 107//35
f 149//34 114//34 113//34
f 147//34 149//34 113//34
f 150//35 148//35 108//35
f 111//33 150//33 108//33
f 151//32 115//32 114//32
f 149//32 151//32 114//32
f 152//33 150//33 111//33
f 110//31 152//31 111//31
f 153//30 123//30 115//30
f 151//30 153//30 115//30
f 154//31 152//31 110//31
f 119//29 154//29 110//29
f 155//28 121//28 123//28
f 153//28 155//28 123//28
f 156//29 154//29 119//29
f 127//27 156//27 119//27
f 157//26 129//26 121//26
f 155//26 157//26 121//26
f 158//27 156//27 127//27
f 126//24 158//24 127//24
f 159//23 134//23 129//23
f 157//23 159//23 129//23
f 134//22 160//22 126//22
f 160//24 158//24 126//24
f 159//22 160//22 134//22
f 72//42 70//42 4//42
f 17//42 72//42 4//42
f 70//42 68//42 4//42
f 68//42 60//42 4//42
f 60//42 1//42 4//42
f 60//42 61//42 1//42
f 61//42 62//42 1//42
f 62//42 69//42 1//42
f 69//42 14//42 1//42
f 22//42 72//42 17//42
f 69//42 71//42 14//42
f 71//42 19//42 14//42
f 27//42 74//42 22//42
f 74//42 72//42 22//42
f 71//42 73//42 19//42
f 73//42 25//42 19//42
f 31//42 74//42 27//42
f 73//42 29//42 25//42
f 35//42 74//42 31//42
f 73//42 33//42 29//42
f 76//42 74//42 35//42
f 41//42 76//42 35//42
f 73//42 38//42 33//42
f 46//42 76//42 41//42
f 75//42 43//42 38//42
f 73//42 75//42 38//42
f 51//42 78//42 46//42
f 78//42 76//42 46//42
f 77//42 49//42 43//42
f 75//42 77//42 43//42
f 56//42 80//42 51//42
f 80//42 78//42 51//42
f 77//42 54//42 49//42
f 141//42 85//42 56//42
f 85//42 86//42 56//42
f 86//42 82//42 56//42
f 82//42 80//42 56//42
f 83//42 63//42 54//42
f 81//42 83//42 54//42
f 77//42 79//42 54//42
f 79//42 81//42 54//42
f 89//42 63//42 83//42
f 141//42 92//42 85//42
f 90//42 63//42 89//42
f 141//42 97//42 92//42
f 94//42 63//42 90//42
f 141//42 102//42 97//42
f 143//42 63//42 94//42
f 99//42 143//42 94//42
f 146//42 112//42 102//42
f 144//42 146//42 102//42
f 141//42 144//42 102//42
f 145//42 143//42 99//42
f 106//42 145//42 99//42
f 146//42 148//42 112//42
f 148//42 150//42 112//42
f 150//42 152//42 112//42
f 152//42 120//42 112//42
f 117//42 153//42 106//42
f 153//42 151//42 106//42
f 151//42 149//42 106//42
f 147//42 145//42 106//42
f 149//42 147//42 106//42
f 156//42 128//42 120//42
f 152//42 154//42 120//42
f 154//42 156//42 120//42
f 124//42 155//42 117//42
f 155//42 153//42 117//42
f 158//42 133//42 128//42
f 156//42 158//42 128//42
f 131//42 159//42 124//42
f 159//42 157//42 124//42
f 157//42 155//42 124//42
f 160//42 138//42 133//42
f 158//42 160//42 133//42
f 136//42 159//42 131//42
f 160//42 142//42 138//42
f 140//42 159//42 136//42
f 160//42 140//42 142//42
f 160//42 159//42 140//42
