# Blender v2.80 (sub 75) OBJ File: ''
# www.blender.org
mtllib Object2.mtl
o Object2
v -2.666667 5.333334 -2.500000
v 5.333334 -2.666667 2.500000
v 5.333334 -2.666667 -2.500000
v -2.666667 -2.666667 2.500000
v -2.666667 5.333334 2.500001
v -2.666667 -2.666667 -2.500000
vn 0.7071 0.7071 0.0000
vn -1.0000 0.0000 0.0000
vn 0.0000 -1.0000 0.0000
vn 0.0000 0.0000 -1.0000
vn 0.0000 -0.0000 1.0000
usemtl None
s off
f 1//1 2//1 3//1
f 4//2 5//2 6//2
f 5//2 1//2 6//2
f 3//3 4//3 6//3
f 1//4 3//4 6//4
f 2//3 4//3 3//3
f 2//5 5//5 4//5
f 1//1 5//1 2//1
