# Blender v2.80 (sub 75) OBJ File: ''
# www.blender.org
mtllib Object4.mtl
o Object4
v 0.301342 1.174051 -2.481773
v 0.301342 -4.325951 -2.481773
v 0.000000 -4.325951 -2.500001
v -0.301342 -4.325951 -2.481773
v 0.000000 1.174051 -2.500001
v 0.000000 -4.325951 -0.000001
v -0.598289 -4.325951 -2.427356
v -0.301342 1.174051 -2.481773
v 0.598289 1.174051 -2.427355
v 0.598289 -4.325951 -2.427356
v -0.886512 -4.325951 -2.337542
v -0.598289 1.174051 -2.427355
v 0.886513 1.174051 -2.337542
v 0.886513 -4.325951 -2.337542
v -1.161808 -4.325951 -2.213641
v -0.886512 1.174051 -2.337542
v 1.161808 1.174051 -2.213641
v 1.161808 -4.325951 -2.213641
v -1.420162 -4.325951 -2.057461
v -1.161808 1.174051 -2.213641
v 1.420162 1.174051 -2.057461
v 1.420162 -4.325951 -2.057461
v -1.657807 -4.325951 -1.871278
v -1.420162 1.174051 -2.057461
v 1.657807 1.174051 -1.871278
v 1.657807 -4.325951 -1.871278
v -1.871277 -4.325951 -1.657808
v -1.657807 1.174051 -1.871278
v 1.871277 1.174051 -1.657808
v 1.871277 -4.325951 -1.657808
v -2.057460 -4.325951 -1.420163
v -1.871277 1.174051 -1.657808
v 2.057460 1.174051 -1.420163
v 2.057460 -4.325951 -1.420163
v -2.213640 -4.325951 -1.161809
v -2.057460 1.174051 -1.420163
v 2.213641 1.174051 -1.161809
v 2.213641 -4.325951 -1.161809
v -2.337541 -4.325951 -0.886513
v -2.213640 1.174051 -1.161809
v 2.337541 1.174051 -0.886513
v 2.337541 -4.325951 -0.886513
v -2.427355 -4.325951 -0.598290
v -2.337541 1.174051 -0.886513
v 2.427355 1.174051 -0.598290
v 2.427355 -4.325951 -0.598290
v -2.481773 -4.325951 -0.301342
v -2.427355 1.174051 -0.598290
v 2.481773 1.174051 -0.301342
v 2.481773 -4.325951 -0.301342
v -2.500000 -4.325951 -0.000001
v -2.481773 1.174051 -0.301342
v 2.500000 1.174051 -0.000000
v 2.500000 -4.325951 -0.000001
v 2.481773 1.174051 0.301342
v 2.481773 -4.325951 0.301341
v 0.000000 -4.325951 2.500000
v -0.301342 -4.325951 2.481772
v 0.886513 -4.325951 2.337541
v 0.598289 -4.325951 2.427354
v 0.301342 -4.325951 2.481772
v 1.657807 -4.325951 1.871277
v 1.420162 -4.325951 2.057460
v 1.161808 -4.325951 2.213640
v 2.213641 -4.325951 1.161808
v 2.057460 -4.325951 1.420161
v 1.871277 -4.325951 1.657807
v 2.427355 -4.325951 0.598289
v 2.337541 -4.325951 0.886512
v -2.337541 -4.325951 0.886512
v -2.427355 -4.325951 0.598289
v -2.481773 -4.325951 0.301341
v -1.871277 -4.325951 1.657807
v -2.057460 -4.325951 1.420161
v -2.213640 -4.325951 1.161808
v -1.161808 -4.325951 2.213640
v -1.420162 -4.325951 2.057460
v -1.657807 -4.325951 1.871277
v -0.598289 -4.325951 2.427354
v -0.886512 -4.325951 2.337541
v -2.500000 1.174051 -0.000000
v -2.481773 1.174051 0.301342
v 2.427355 1.174051 0.598289
v -2.427355 1.174051 0.598289
v 2.337541 1.174051 0.886512
v -2.337541 1.174051 0.886512
v 2.213641 1.174051 1.161808
v -2.213640 1.174051 1.161808
v 2.057460 1.174051 1.420162
v -2.057460 1.174051 1.420162
v 1.871277 1.174051 1.657807
v -1.871277 1.174051 1.657807
v 1.657807 1.174051 1.871277
v -1.657807 1.174051 1.871277
v 1.420162 1.174051 2.057460
v -1.420162 1.174051 2.057460
v 1.161808 1.174051 2.213640
v -1.161808 1.174051 2.213640
v 0.886513 1.174051 2.337541
v -0.886512 1.174051 2.337541
v 0.598289 1.174051 2.427355
v -0.598289 1.174051 2.427355
v 0.301342 1.174051 2.481772
v -0.301342 1.174051 2.481772
v 0.000000 1.174051 2.500000
v 0.060268 3.174051 -0.496355
v 0.000000 3.174051 -0.500000
v -0.060268 3.174051 -0.496355
v 0.119658 3.174051 -0.485471
v -0.119658 3.174051 -0.485471
v 0.177303 3.174051 -0.467508
v -0.177302 3.174051 -0.467508
v 0.232362 3.174051 -0.442728
v -0.232362 3.174051 -0.442728
v 0.284032 3.174051 -0.411492
v -0.284032 3.174051 -0.411492
v 0.331561 3.174051 -0.374256
v -0.331561 3.174051 -0.374256
v 0.374255 3.174051 -0.331562
v -0.374255 3.174051 -0.331562
v 0.411492 3.174051 -0.284033
v -0.411492 3.174051 -0.284033
v 0.442728 3.174051 -0.232362
v -0.442728 3.174051 -0.232362
v 0.467508 3.174051 -0.177303
v -0.467508 3.174051 -0.177303
v 0.485471 3.174051 -0.119658
v -0.485471 3.174051 -0.119658
v 0.496355 3.174051 -0.060268
v -0.496354 3.174051 -0.060268
v 0.500000 3.174051 -0.000000
v 0.496355 3.174051 0.060268
v -0.500000 3.174051 -0.000000
v -0.496354 3.174051 0.060268
v 0.485471 3.174051 0.119658
v -0.485471 3.174051 0.119658
v 0.467508 3.174051 0.177302
v -0.467508 3.174051 0.177302
v 0.442728 3.174051 0.232361
v -0.442728 3.174051 0.232361
v 0.411492 3.174051 0.284032
v -0.411492 3.174051 0.284032
v 0.374255 3.174051 0.331561
v -0.374255 3.174051 0.331561
v 0.331561 3.174051 0.374255
v -0.331561 3.174051 0.374255
v 0.284032 3.174051 0.411492
v -0.284032 3.174051 0.411492
v 0.232362 3.174051 0.442728
v -0.232362 3.174051 0.442728
v 0.177303 3.174051 0.467508
v -0.177302 3.174051 0.467508
v 0.119658 3.174051 0.485471
v -0.119658 3.174051 0.485471
v 0.060268 3.174051 0.496354
v -0.060268 3.174051 0.496354
v 0.000000 3.174051 0.500000
v 0.000000 3.174051 -0.000000
vn 0.0604 0.0000 -0.9982
vn -0.0604 0.0000 -0.9982
vn 0.0000 -1.0000 0.0000
vn -0.1803 0.0000 -0.9836
vn 0.1803 0.0000 -0.9836
vn -0.2975 0.0000 -0.9547
vn 0.2975 0.0000 -0.9547
vn -0.4104 0.0000 -0.9119
vn 0.4104 0.0000 -0.9119
vn -0.5173 0.0000 -0.8558
vn 0.5173 0.0000 -0.8558
vn -0.6167 0.0000 -0.7872
vn 0.6167 0.0000 -0.7872
vn -0.7071 0.0000 -0.7071
vn 0.7071 0.0000 -0.7071
vn -0.7872 0.0000 -0.6167
vn 0.7872 0.0000 -0.6167
vn -0.8558 -0.0000 -0.5173
vn 0.8558 0.0000 -0.5173
vn -0.9119 0.0000 -0.4104
vn 0.9119 0.0000 -0.4104
vn -0.9547 0.0000 -0.2975
vn 0.9547 0.0000 -0.2975
vn -0.9836 0.0000 -0.1803
vn 0.9836 0.0000 -0.1803
vn -0.9982 0.0000 -0.0604
vn 0.9982 0.0000 -0.0604
vn 0.9982 0.0000 0.0604
vn -0.9982 -0.0000 0.0604
vn -0.9836 0.0000 0.1803
vn 0.9836 0.0000 0.1803
vn -0.9547 0.0000 0.2975
vn 0.9547 -0.0000 0.2975
vn -0.9119 -0.0000 0.4104
vn 0.9119 0.0000 0.4104
vn -0.8558 0.0000 0.5173
vn 0.8558 -0.0000 0.5173
vn -0.7872 -0.0000 0.6167
vn 0.7872 0.0000 0.6167
vn -0.7071 -0.0000 0.7071
vn 0.7071 -0.0000 0.7071
vn -0.6167 -0.0000 0.7872
vn 0.6167 -0.0000 0.7872
vn -0.5173 -0.0000 0.8558
vn 0.5173 -0.0000 0.8558
vn -0.4104 -0.0000 0.9119
vn 0.4104 -0.0000 0.9119
vn -0.2975 -0.0000 0.9547
vn 0.2975 -0.0000 0.9547
vn -0.1803 -0.0000 0.9836
vn 0.1803 -0.0000 0.9836
vn -0.0604 -0.0000 0.9982
vn 0.0604 -0.0000 0.9982
vn 0.0427 0.7065 -0.7065
vn -0.0427 0.7065 -0.7065
vn -0.1276 0.7065 -0.6962
vn 0.1276 0.7065 -0.6962
vn -0.2106 0.7065 -0.6757
vn 0.2106 0.7065 -0.6757
vn -0.2905 0.7065 -0.6454
vn 0.2905 0.7065 -0.6454
vn -0.3661 0.7065 -0.6057
vn 0.3661 0.7065 -0.6057
vn -0.4365 0.7065 -0.5571
vn 0.4365 0.7065 -0.5571
vn -0.5005 0.7065 -0.5005
vn 0.5005 0.7065 -0.5005
vn -0.5571 0.7065 -0.4365
vn 0.5571 0.7065 -0.4365
vn -0.6057 0.7065 -0.3661
vn 0.6057 0.7065 -0.3661
vn -0.6454 0.7065 -0.2905
vn 0.6454 0.7065 -0.2905
vn -0.6757 0.7065 -0.2106
vn 0.6757 0.7065 -0.2106
vn -0.6962 0.7065 -0.1276
vn 0.6962 0.7065 -0.1276
vn -0.7065 0.7065 -0.0427
vn 0.7065 0.7065 -0.0427
vn 0.7065 0.7065 0.0427
vn -0.7065 0.7065 0.0427
vn -0.6962 0.7065 0.1276
vn 0.6962 0.7065 0.1276
vn -0.6757 0.7065 0.2106
vn 0.6757 0.7065 0.2106
vn -0.6454 0.7065 0.2905
vn 0.6454 0.7065 0.2905
vn -0.6057 0.7065 0.3661
vn 0.6057 0.7065 0.3661
vn -0.5571 0.7065 0.4365
vn 0.5571 0.7065 0.4365
vn -0.5005 0.7065 0.5005
vn 0.5005 0.7065 0.5005
vn -0.4365 0.7065 0.5571
vn 0.4365 0.7065 0.5571
vn -0.3661 0.7065 0.6057
vn 0.3662 0.7065 0.6057
vn 0.3661 0.7065 0.6057
vn -0.2905 0.7065 0.6454
vn 0.2905 0.7065 0.6454
vn -0.2106 0.7065 0.6757
vn 0.2106 0.7065 0.6757
vn -0.1276 0.7065 0.6962
vn 0.1276 0.7065 0.6962
vn -0.0427 0.7065 0.7065
vn 0.0427 0.7065 0.7065
vn 0.0000 1.0000 0.0000
usemtl None
s off
f 1//1 2//1 3//1
f 4//2 5//2 3//2
f 5//1 1//1 3//1
f 6//3 4//3 3//3
f 2//3 6//3 3//3
f 7//4 8//4 4//4
f 8//2 5//2 4//2
f 6//3 7//3 4//3
f 1//5 9//5 2//5
f 9//5 10//5 2//5
f 10//3 6//3 2//3
f 11//6 12//6 7//6
f 12//4 8//4 7//4
f 6//3 11//3 7//3
f 9//7 13//7 10//7
f 13//7 14//7 10//7
f 14//3 6//3 10//3
f 15//8 16//8 11//8
f 16//6 12//6 11//6
f 6//3 15//3 11//3
f 13//9 17//9 14//9
f 17//9 18//9 14//9
f 18//3 6//3 14//3
f 19//10 20//10 15//10
f 20//8 16//8 15//8
f 6//3 19//3 15//3
f 17//11 21//11 18//11
f 21//11 22//11 18//11
f 22//3 6//3 18//3
f 23//12 24//12 19//12
f 24//10 20//10 19//10
f 6//3 23//3 19//3
f 21//13 25//13 22//13
f 25//13 26//13 22//13
f 26//3 6//3 22//3
f 27//14 28//14 23//14
f 28//12 24//12 23//12
f 6//3 27//3 23//3
f 25//15 29//15 26//15
f 29//15 30//15 26//15
f 30//3 6//3 26//3
f 31//16 32//16 27//16
f 32//14 28//14 27//14
f 6//3 31//3 27//3
f 29//17 33//17 30//17
f 33//17 34//17 30//17
f 34//3 6//3 30//3
f 35//18 36//18 31//18
f 36//16 32//16 31//16
f 6//3 35//3 31//3
f 33//19 37//19 34//19
f 37//19 38//19 34//19
f 38//3 6//3 34//3
f 39//20 40//20 35//20
f 40//18 36//18 35//18
f 6//3 39//3 35//3
f 37//21 41//21 38//21
f 41//21 42//21 38//21
f 42//3 6//3 38//3
f 43//22 44//22 39//22
f 44//20 40//20 39//20
f 6//3 43//3 39//3
f 41//23 45//23 42//23
f 45//23 46//23 42//23
f 46//3 6//3 42//3
f 47//24 48//24 43//24
f 48//22 44//22 43//22
f 6//3 47//3 43//3
f 45//25 49//25 46//25
f 49//25 50//25 46//25
f 50//3 6//3 46//3
f 51//26 52//26 47//26
f 52//24 48//24 47//24
f 6//3 51//3 47//3
f 49//27 53//27 50//27
f 53//27 54//27 50//27
f 54//3 6//3 50//3
f 53//28 55//28 54//28
f 55//28 56//28 54//28
f 56//3 6//3 54//3
f 57//3 58//3 6//3
f 59//3 60//3 6//3
f 60//3 61//3 6//3
f 61//3 57//3 6//3
f 62//3 63//3 6//3
f 63//3 64//3 6//3
f 64//3 59//3 6//3
f 65//3 66//3 6//3
f 66//3 67//3 6//3
f 67//3 62//3 6//3
f 56//3 68//3 6//3
f 68//3 69//3 6//3
f 69//3 65//3 6//3
f 70//3 71//3 6//3
f 71//3 72//3 6//3
f 72//3 51//3 6//3
f 73//3 74//3 6//3
f 74//3 75//3 6//3
f 75//3 70//3 6//3
f 76//3 77//3 6//3
f 77//3 78//3 6//3
f 78//3 73//3 6//3
f 58//3 79//3 6//3
f 79//3 80//3 6//3
f 80//3 76//3 6//3
f 72//29 81//29 51//29
f 81//26 52//26 51//26
f 71//30 82//30 72//30
f 82//29 81//29 72//29
f 55//31 83//31 56//31
f 83//31 68//31 56//31
f 70//32 84//32 71//32
f 84//30 82//30 71//30
f 83//33 85//33 68//33
f 85//33 69//33 68//33
f 75//34 86//34 70//34
f 86//32 84//32 70//32
f 85//35 87//35 69//35
f 87//35 65//35 69//35
f 74//36 88//36 75//36
f 88//34 86//34 75//34
f 87//37 89//37 65//37
f 89//37 66//37 65//37
f 73//38 90//38 74//38
f 90//36 88//36 74//36
f 89//39 91//39 66//39
f 91//39 67//39 66//39
f 78//40 92//40 73//40
f 92//38 90//38 73//38
f 91//41 93//41 67//41
f 93//41 62//41 67//41
f 77//42 94//42 78//42
f 94//40 92//40 78//40
f 93//43 95//43 62//43
f 95//43 63//43 62//43
f 76//44 96//44 77//44
f 96//42 94//42 77//42
f 95//45 97//45 63//45
f 97//45 64//45 63//45
f 80//46 98//46 76//46
f 98//44 96//44 76//44
f 97//47 99//47 64//47
f 99//47 59//47 64//47
f 79//48 100//48 80//48
f 100//46 98//46 80//46
f 99//49 101//49 59//49
f 101//49 60//49 59//49
f 58//50 102//50 79//50
f 102//48 100//48 79//48
f 101//51 103//51 60//51
f 103//51 61//51 60//51
f 57//52 104//52 58//52
f 104//50 102//50 58//50
f 103//53 105//53 61//53
f 105//53 57//53 61//53
f 105//52 104//52 57//52
f 106//54 1//54 5//54
f 8//55 107//55 5//55
f 107//54 106//54 5//54
f 12//56 108//56 8//56
f 108//55 107//55 8//55
f 106//57 109//57 1//57
f 109//57 9//57 1//57
f 16//58 110//58 12//58
f 110//56 108//56 12//56
f 109//59 111//59 9//59
f 111//59 13//59 9//59
f 20//60 112//60 16//60
f 112//58 110//58 16//58
f 111//61 113//61 13//61
f 113//61 17//61 13//61
f 24//62 114//62 20//62
f 114//60 112//60 20//60
f 113//63 115//63 17//63
f 115//63 21//63 17//63
f 28//64 116//64 24//64
f 116//62 114//62 24//62
f 115//65 117//65 21//65
f 117//65 25//65 21//65
f 32//66 118//66 28//66
f 118//64 116//64 28//64
f 117//67 119//67 25//67
f 119//67 29//67 25//67
f 36//68 120//68 32//68
f 120//66 118//66 32//66
f 119//69 121//69 29//69
f 121//69 33//69 29//69
f 40//70 122//70 36//70
f 122//68 120//68 36//68
f 121//71 123//71 33//71
f 123//71 37//71 33//71
f 44//72 124//72 40//72
f 124//70 122//70 40//70
f 123//73 125//73 37//73
f 125//73 41//73 37//73
f 48//74 126//74 44//74
f 126//72 124//72 44//72
f 125//75 127//75 41//75
f 127//75 45//75 41//75
f 52//76 128//76 48//76
f 128//74 126//74 48//74
f 127//77 129//77 45//77
f 129//77 49//77 45//77
f 81//78 130//78 52//78
f 130//76 128//76 52//76
f 129//79 131//79 49//79
f 131//79 53//79 49//79
f 131//80 132//80 53//80
f 132//80 55//80 53//80
f 82//81 133//81 81//81
f 133//78 130//78 81//78
f 84//82 134//82 82//82
f 134//81 133//81 82//81
f 132//83 135//83 55//83
f 135//83 83//83 55//83
f 86//84 136//84 84//84
f 136//82 134//82 84//82
f 135//85 137//85 83//85
f 137//85 85//85 83//85
f 88//86 138//86 86//86
f 138//84 136//84 86//84
f 137//87 139//87 85//87
f 139//87 87//87 85//87
f 90//88 140//88 88//88
f 140//86 138//86 88//86
f 139//89 141//89 87//89
f 141//89 89//89 87//89
f 92//90 142//90 90//90
f 142//88 140//88 90//88
f 141//91 143//91 89//91
f 143//91 91//91 89//91
f 94//92 144//92 92//92
f 144//90 142//90 92//90
f 143//93 145//93 91//93
f 145//93 93//93 91//93
f 96//94 146//94 94//94
f 146//92 144//92 94//92
f 145//95 147//95 93//95
f 147//95 95//95 93//95
f 98//96 148//96 96//96
f 148//94 146//94 96//94
f 147//97 149//97 95//97
f 149//98 97//98 95//98
f 100//99 150//99 98//99
f 150//96 148//96 98//96
f 149//100 151//100 97//100
f 151//100 99//100 97//100
f 102//101 152//101 100//101
f 152//99 150//99 100//99
f 151//102 153//102 99//102
f 153//102 101//102 99//102
f 104//103 154//103 102//103
f 154//101 152//101 102//101
f 153//104 155//104 101//104
f 155//104 103//104 101//104
f 105//105 156//105 104//105
f 156//103 154//103 104//103
f 155//106 157//106 103//106
f 157//106 105//106 103//106
f 157//105 156//105 105//105
f 158//107 106//107 107//107
f 108//107 158//107 107//107
f 110//107 158//107 108//107
f 158//107 109//107 106//107
f 112//107 158//107 110//107
f 158//107 111//107 109//107
f 114//107 158//107 112//107
f 158//107 113//107 111//107
f 116//107 158//107 114//107
f 158//107 115//107 113//107
f 118//107 158//107 116//107
f 158//107 117//107 115//107
f 120//107 158//107 118//107
f 158//107 119//107 117//107
f 122//107 158//107 120//107
f 158//107 121//107 119//107
f 124//107 158//107 122//107
f 158//107 123//107 121//107
f 126//107 158//107 124//107
f 158//107 125//107 123//107
f 128//107 158//107 126//107
f 158//107 127//107 125//107
f 130//107 158//107 128//107
f 158//107 129//107 127//107
f 133//107 158//107 130//107
f 158//107 131//107 129//107
f 158//107 132//107 131//107
f 157//107 155//107 158//107
f 152//107 154//107 158//107
f 154//107 156//107 158//107
f 156//107 157//107 158//107
f 146//107 148//107 158//107
f 148//107 150//107 158//107
f 150//107 152//107 158//107
f 140//107 142//107 158//107
f 142//107 144//107 158//107
f 144//107 146//107 158//107
f 134//107 136//107 158//107
f 136//107 138//107 158//107
f 138//107 140//107 158//107
f 133//107 134//107 158//107
f 137//107 135//107 158//107
f 135//107 132//107 158//107
f 143//107 141//107 158//107
f 141//107 139//107 158//107
f 139//107 137//107 158//107
f 149//107 147//107 158//107
f 147//107 145//107 158//107
f 145//107 143//107 158//107
f 155//107 153//107 158//107
f 153//107 151//107 158//107
f 151//107 149//107 158//107
