# Blender v2.80 (sub 75) OBJ File: ''
# www.blender.org
mtllib RobotArm.mtl
o RobotArm
v 0.002605 0.045550 -0.014772
v 0.002605 0.000050 -0.014772
v 0.000000 0.000050 -0.015000
v 0.000000 0.045550 -0.015000
v -0.002605 0.000050 -0.014772
v 0.000000 0.000050 -0.000000
v -0.002605 0.045550 -0.014772
v -0.005130 0.000050 -0.014095
v 0.005130 0.045550 -0.014095
v 0.005130 0.000050 -0.014095
v -0.005130 0.045550 -0.014095
v -0.007500 0.000050 -0.012990
v 0.007500 0.045550 -0.012990
v 0.007500 0.000050 -0.012990
v -0.007500 0.045550 -0.012990
v -0.009642 0.000050 -0.011491
v 0.009642 0.045550 -0.011491
v 0.009642 0.000050 -0.011491
v -0.009642 0.045550 -0.011491
v -0.011491 0.000050 -0.009642
v 0.011491 0.045550 -0.009642
v 0.011491 0.000050 -0.009642
v -0.011491 0.045550 -0.009642
v -0.012990 0.000050 -0.007500
v 0.012990 0.045550 -0.007500
v 0.012990 0.000050 -0.007500
v -0.012990 0.045550 -0.007500
v -0.014095 0.000050 -0.005130
v 0.014095 0.045550 -0.005130
v 0.014095 0.000050 -0.005130
v -0.014095 0.045550 -0.005130
v -0.014772 0.000050 -0.002605
v 0.014772 0.045550 -0.002605
v 0.014772 0.000050 -0.002605
v -0.014772 0.045550 -0.002605
v -0.015000 0.000050 -0.000000
v 0.015000 0.045550 -0.000000
v 0.015000 0.000050 -0.000000
v -0.015000 0.045550 -0.000000
v -0.014772 0.000050 0.002605
v -0.014095 0.000050 0.005130
v -0.009642 0.000050 0.011491
v -0.011491 0.000050 0.009642
v -0.012990 0.000050 0.007500
v -0.002605 0.000050 0.014772
v -0.005130 0.000050 0.014095
v -0.007500 0.000050 0.012990
v 0.005130 0.000050 0.014095
v 0.002605 0.000050 0.014772
v 0.000000 0.000050 0.015000
v 0.011491 0.000050 0.009642
v 0.009642 0.000050 0.011491
v 0.007500 0.000050 0.012990
v 0.014772 0.000050 0.002605
v 0.014095 0.000050 0.005130
v 0.012990 0.000050 0.007500
v 0.014772 0.045550 0.002605
v -0.014772 0.045550 0.002605
v 0.014095 0.045550 0.005130
v -0.014095 0.045550 0.005130
v 0.012990 0.045550 0.007500
v -0.012990 0.045550 0.007500
v 0.011491 0.045550 0.009642
v -0.011491 0.045550 0.009642
v 0.009642 0.045550 0.011491
v -0.009642 0.045550 0.011491
v 0.007500 0.045550 0.012990
v -0.007500 0.045550 0.012990
v 0.005130 0.045550 0.014095
v -0.005130 0.045550 0.014095
v 0.002605 0.045550 0.014772
v -0.002605 0.045550 0.014772
v 0.000000 0.045550 0.015000
v 0.006831 0.145550 -0.040934
v 0.006831 0.045550 -0.040934
v 0.000000 0.045550 -0.041500
v 0.000000 0.145550 -0.041500
v -0.006831 0.045550 -0.040934
v -0.006831 0.145550 -0.040934
v -0.013475 0.045550 -0.039251
v 0.013475 0.145550 -0.039251
v 0.013475 0.045550 -0.039251
v -0.013475 0.145550 -0.039251
v -0.019752 0.045550 -0.036498
v 0.019752 0.145550 -0.036498
v 0.019752 0.045550 -0.036498
v -0.019752 0.145550 -0.036498
v -0.025490 0.045550 -0.032749
v 0.025490 0.145550 -0.032749
v 0.025490 0.045550 -0.032749
v -0.025490 0.145550 -0.032749
v -0.030533 0.045550 -0.028107
v 0.030532 0.145550 -0.028107
v 0.030532 0.045550 -0.028107
v -0.030533 0.145550 -0.028107
v -0.034743 0.045550 -0.022698
v 0.034742 0.145550 -0.022698
v 0.034742 0.045550 -0.022698
v -0.034743 0.145550 -0.022698
v -0.038005 0.045550 -0.016670
v 0.038004 0.145550 -0.016670
v 0.038004 0.045550 -0.016670
v -0.038005 0.145550 -0.016670
v -0.040230 0.045550 -0.010188
v 0.040230 0.145550 -0.010188
v 0.040230 0.045550 -0.010188
v -0.040230 0.145550 -0.010188
v -0.041358 0.045550 -0.003427
v 0.041358 0.145550 -0.003427
v 0.041358 0.045550 -0.003427
v -0.041358 0.145550 -0.003427
v -0.041358 0.045550 0.003427
v 0.041358 0.145550 0.003427
v 0.041358 0.045550 0.003427
v -0.038005 0.045550 0.016670
v -0.040230 0.045550 0.010188
v 0.040230 0.045550 0.010188
v -0.041358 0.145550 0.003427
v 0.040230 0.145550 0.010188
v -0.034743 0.045550 0.022698
v 0.038004 0.045550 0.016670
v -0.030533 0.045550 0.028107
v 0.034742 0.045550 0.022698
v -0.025490 0.045550 0.032749
v 0.030532 0.045550 0.028107
v -0.040230 0.145550 0.010188
v 0.038004 0.145550 0.016670
v -0.019752 0.045550 0.036498
v 0.025490 0.045550 0.032749
v -0.013475 0.045550 0.039251
v 0.019752 0.045550 0.036498
v -0.006831 0.045550 0.040934
v 0.013475 0.045550 0.039251
v 0.000000 0.045550 0.041500
v 0.006831 0.045550 0.040934
v -0.038005 0.145550 0.016670
v 0.034742 0.145550 0.022698
v -0.034743 0.145550 0.022698
v 0.030532 0.145550 0.028107
v -0.030533 0.145550 0.028107
v 0.025490 0.145550 0.032749
v -0.025490 0.145550 0.032749
v 0.019752 0.145550 0.036498
v -0.019752 0.145550 0.036498
v 0.013475 0.145550 0.039251
v -0.013475 0.145550 0.039251
v 0.006831 0.145550 0.040934
v -0.006831 0.145550 0.040934
v 0.000000 0.145550 0.041500
v 0.000000 0.145550 -0.035000
v -0.006078 0.145550 -0.034468
v -0.011971 0.145550 -0.032889
v 0.006078 0.145550 -0.034468
v -0.017500 0.145550 -0.030311
v 0.011971 0.145550 -0.032889
v -0.022498 0.145550 -0.026812
v 0.017500 0.145550 -0.030311
v 0.006078 0.285550 -0.034468
v 0.000000 0.285550 -0.035000
v -0.006078 0.285550 -0.034468
v 0.011971 0.285550 -0.032889
v -0.011971 0.285550 -0.032889
v 0.017500 0.285550 -0.030311
v -0.026812 0.145550 -0.022498
v 0.022498 0.145550 -0.026812
v -0.017500 0.285550 -0.030311
v 0.022498 0.285550 -0.026812
v -0.030311 0.145550 -0.017500
v 0.026812 0.145550 -0.022498
v -0.022498 0.285550 -0.026812
v 0.026812 0.285550 -0.022498
v -0.032889 0.145550 -0.011971
v 0.030311 0.145550 -0.017500
v -0.026812 0.285550 -0.022498
v 0.030311 0.285550 -0.017500
v -0.030311 0.285550 -0.017500
v 0.032889 0.285550 -0.011971
v 0.032889 0.145550 -0.011971
v -0.034468 0.145550 -0.006078
v -0.032889 0.285550 -0.011971
v 0.034468 0.285550 -0.006078
v 0.034468 0.145550 -0.006078
v -0.035000 0.145550 0.000000
v -0.034468 0.285550 -0.006078
v 0.035000 0.285550 0.000000
v 0.035000 0.145550 0.000000
v 0.034468 0.285550 0.006078
v 0.034468 0.145550 0.006078
v -0.034468 0.145550 0.006078
v -0.035000 0.285550 0.000000
v -0.032889 0.145550 0.011971
v -0.034468 0.285550 0.006078
v 0.032889 0.285550 0.011971
v 0.032889 0.145550 0.011971
v -0.030311 0.145550 0.017500
v -0.032889 0.285550 0.011971
v 0.030311 0.285550 0.017500
v 0.030311 0.145550 0.017500
v -0.026812 0.145550 0.022498
v -0.030311 0.285550 0.017500
v 0.026812 0.285550 0.022498
v 0.026812 0.145550 0.022498
v -0.022498 0.145550 0.026812
v -0.026812 0.285550 0.022498
v 0.022498 0.285550 0.026812
v 0.022498 0.145550 0.026812
v -0.017500 0.145550 0.030311
v -0.022498 0.285550 0.026812
v 0.017500 0.285550 0.030311
v 0.017500 0.145550 0.030311
v -0.011971 0.145550 0.032889
v -0.017500 0.285550 0.030311
v 0.011971 0.285550 0.032889
v 0.011971 0.145550 0.032889
v -0.006078 0.145550 0.034468
v -0.011971 0.285550 0.032889
v 0.006078 0.285550 0.034468
v 0.006078 0.145550 0.034468
v 0.000000 0.145550 0.035000
v -0.006078 0.285550 0.034468
v 0.000000 0.285550 0.035000
v 0.000000 0.285550 0.000000
vn 0.0872 0.0000 -0.9962
vn -0.0871 0.0000 -0.9962
vn 0.0000 -1.0000 -0.0000
vn -0.2589 0.0000 -0.9659
vn 0.2588 0.0000 -0.9659
vn -0.4226 0.0000 -0.9063
vn 0.4226 0.0000 -0.9063
vn -0.5736 0.0000 -0.8191
vn 0.5736 0.0000 -0.8191
vn -0.7071 0.0000 -0.7071
vn 0.7071 0.0000 -0.7071
vn -0.8192 0.0000 -0.5736
vn 0.8192 0.0000 -0.5736
vn -0.9063 0.0000 -0.4226
vn 0.9063 0.0000 -0.4226
vn -0.9659 0.0000 -0.2588
vn 0.9659 0.0000 -0.2588
vn -0.9962 0.0000 -0.0872
vn 0.9962 0.0000 -0.0872
vn -0.9962 -0.0000 0.0872
vn 0.9962 0.0000 0.0872
vn -0.9659 -0.0000 0.2588
vn 0.9659 0.0000 0.2588
vn -0.9063 -0.0000 0.4226
vn 0.9063 0.0000 0.4226
vn -0.8192 -0.0000 0.5736
vn 0.8192 0.0000 0.5736
vn -0.7071 -0.0000 0.7071
vn 0.7071 -0.0000 0.7071
vn -0.5736 -0.0000 0.8192
vn 0.5736 -0.0000 0.8192
vn -0.4226 -0.0000 0.9063
vn 0.4226 -0.0000 0.9063
vn -0.2588 -0.0000 0.9659
vn 0.2588 -0.0000 0.9659
vn -0.0872 -0.0000 0.9962
vn 0.0872 -0.0000 0.9962
vn 0.0826 0.0000 -0.9966
vn -0.0826 0.0000 -0.9966
vn -0.2455 0.0000 -0.9694
vn 0.2455 0.0000 -0.9694
vn -0.4017 0.0000 -0.9158
vn 0.4017 0.0000 -0.9158
vn -0.5470 0.0000 -0.8372
vn 0.5469 0.0000 -0.8372
vn -0.6773 0.0000 -0.7357
vn 0.6773 0.0000 -0.7357
vn -0.7891 0.0000 -0.6142
vn 0.7891 0.0000 -0.6142
vn -0.8795 0.0000 -0.4760
vn 0.8795 0.0000 -0.4759
vn -0.9458 0.0000 -0.3247
vn 0.9458 0.0000 -0.3247
vn -0.9864 0.0000 -0.1646
vn 0.9864 0.0000 -0.1646
vn -1.0000 0.0000 0.0000
vn 1.0000 0.0000 0.0000
vn -0.9864 0.0000 0.1646
vn 0.9864 0.0000 0.1646
vn -0.9458 0.0000 0.3247
vn 0.9458 0.0000 0.3247
vn -0.8795 0.0000 0.4760
vn 0.8795 0.0000 0.4759
vn -0.7891 -0.0000 0.6142
vn 0.7891 0.0000 0.6142
vn -0.6773 -0.0000 0.7357
vn 0.6773 0.0000 0.7357
vn -0.5470 -0.0000 0.8372
vn 0.5469 -0.0000 0.8372
vn -0.4017 -0.0000 0.9158
vn 0.4017 -0.0000 0.9158
vn -0.2455 -0.0000 0.9694
vn 0.2455 -0.0000 0.9694
vn -0.0826 -0.0000 0.9966
vn 0.0826 -0.0000 0.9966
vn 0.0000 1.0000 0.0000
vn 0.0871 0.0000 -0.9962
vn -0.2588 0.0000 -0.9659
vn -0.8191 0.0000 -0.5736
vn 0.8192 0.0000 -0.5735
vn -0.9962 0.0000 -0.0871
vn 0.9962 0.0000 -0.0871
vn 0.9962 -0.0000 0.0871
vn -0.9962 0.0000 0.0871
vn -0.8191 -0.0000 0.5736
vn 0.8192 -0.0000 0.5735
vn -0.0871 -0.0000 0.9962
vn 0.0871 -0.0000 0.9962
usemtl None
s off
f 1//1 2//1 3//1
f 4//1 1//1 3//1
f 5//2 4//2 3//2
f 6//3 5//3 3//3
f 2//3 6//3 3//3
f 7//2 4//2 5//2
f 8//4 7//4 5//4
f 6//3 8//3 5//3
f 9//5 10//5 2//5
f 1//5 9//5 2//5
f 10//3 6//3 2//3
f 11//4 7//4 8//4
f 12//6 11//6 8//6
f 6//3 12//3 8//3
f 13//7 14//7 10//7
f 9//7 13//7 10//7
f 14//3 6//3 10//3
f 15//6 11//6 12//6
f 16//8 15//8 12//8
f 6//3 16//3 12//3
f 17//9 18//9 14//9
f 13//9 17//9 14//9
f 18//3 6//3 14//3
f 19//8 15//8 16//8
f 20//10 19//10 16//10
f 6//3 20//3 16//3
f 21//11 22//11 18//11
f 17//11 21//11 18//11
f 22//3 6//3 18//3
f 23//10 19//10 20//10
f 24//12 23//12 20//12
f 6//3 24//3 20//3
f 25//13 26//13 22//13
f 21//13 25//13 22//13
f 26//3 6//3 22//3
f 27//12 23//12 24//12
f 28//14 27//14 24//14
f 6//3 28//3 24//3
f 29//15 30//15 26//15
f 25//15 29//15 26//15
f 30//3 6//3 26//3
f 31//14 27//14 28//14
f 32//16 31//16 28//16
f 6//3 32//3 28//3
f 33//17 34//17 30//17
f 29//17 33//17 30//17
f 34//3 6//3 30//3
f 35//16 31//16 32//16
f 36//18 35//18 32//18
f 6//3 36//3 32//3
f 37//19 38//19 34//19
f 33//19 37//19 34//19
f 38//3 6//3 34//3
f 39//18 35//18 36//18
f 40//20 39//20 36//20
f 6//3 40//3 36//3
f 41//3 40//3 6//3
f 42//3 43//3 6//3
f 43//3 44//3 6//3
f 44//3 41//3 6//3
f 45//3 46//3 6//3
f 46//3 47//3 6//3
f 47//3 42//3 6//3
f 48//3 49//3 6//3
f 49//3 50//3 6//3
f 50//3 45//3 6//3
f 51//3 52//3 6//3
f 52//3 53//3 6//3
f 53//3 48//3 6//3
f 54//3 55//3 6//3
f 55//3 56//3 6//3
f 56//3 51//3 6//3
f 38//3 54//3 6//3
f 57//21 54//21 38//21
f 37//21 57//21 38//21
f 58//20 39//20 40//20
f 41//22 58//22 40//22
f 59//23 55//23 54//23
f 57//23 59//23 54//23
f 60//22 58//22 41//22
f 44//24 60//24 41//24
f 61//25 56//25 55//25
f 59//25 61//25 55//25
f 62//24 60//24 44//24
f 43//26 62//26 44//26
f 63//27 51//27 56//27
f 61//27 63//27 56//27
f 64//26 62//26 43//26
f 42//28 64//28 43//28
f 65//29 52//29 51//29
f 63//29 65//29 51//29
f 66//28 64//28 42//28
f 47//30 66//30 42//30
f 67//31 53//31 52//31
f 65//31 67//31 52//31
f 68//30 66//30 47//30
f 46//32 68//32 47//32
f 69//33 48//33 53//33
f 67//33 69//33 53//33
f 70//32 68//32 46//32
f 45//34 70//34 46//34
f 71//35 49//35 48//35
f 69//35 71//35 48//35
f 72//34 70//34 45//34
f 50//36 72//36 45//36
f 71//37 73//37 49//37
f 73//37 50//37 49//37
f 73//36 72//36 50//36
f 74//38 75//38 76//38
f 77//38 74//38 76//38
f 78//39 77//39 76//39
f 4//3 78//3 76//3
f 1//3 4//3 76//3
f 75//3 1//3 76//3
f 79//39 77//39 78//39
f 80//40 79//40 78//40
f 7//3 80//3 78//3
f 4//3 7//3 78//3
f 81//41 82//41 75//41
f 74//41 81//41 75//41
f 9//3 1//3 75//3
f 82//3 9//3 75//3
f 83//40 79//40 80//40
f 84//42 83//42 80//42
f 11//3 84//3 80//3
f 7//3 11//3 80//3
f 85//43 86//43 82//43
f 81//43 85//43 82//43
f 13//3 9//3 82//3
f 86//3 13//3 82//3
f 87//42 83//42 84//42
f 88//44 87//44 84//44
f 15//3 88//3 84//3
f 11//3 15//3 84//3
f 89//45 90//45 86//45
f 85//45 89//45 86//45
f 17//3 13//3 86//3
f 90//3 17//3 86//3
f 91//44 87//44 88//44
f 92//46 91//46 88//46
f 19//3 92//3 88//3
f 15//3 19//3 88//3
f 93//47 94//47 90//47
f 89//47 93//47 90//47
f 21//3 17//3 90//3
f 94//3 21//3 90//3
f 95//46 91//46 92//46
f 96//48 95//48 92//48
f 23//3 96//3 92//3
f 19//3 23//3 92//3
f 97//49 98//49 94//49
f 93//49 97//49 94//49
f 25//3 21//3 94//3
f 98//3 25//3 94//3
f 99//48 95//48 96//48
f 100//50 99//50 96//50
f 27//3 100//3 96//3
f 23//3 27//3 96//3
f 101//51 102//51 98//51
f 97//51 101//51 98//51
f 29//3 25//3 98//3
f 102//3 29//3 98//3
f 103//50 99//50 100//50
f 104//52 103//52 100//52
f 31//3 104//3 100//3
f 27//3 31//3 100//3
f 105//53 106//53 102//53
f 101//53 105//53 102//53
f 33//3 29//3 102//3
f 106//3 33//3 102//3
f 107//52 103//52 104//52
f 108//54 107//54 104//54
f 35//3 108//3 104//3
f 31//3 35//3 104//3
f 109//55 110//55 106//55
f 105//55 109//55 106//55
f 110//3 33//3 106//3
f 111//54 107//54 108//54
f 112//56 111//56 108//56
f 39//3 112//3 108//3
f 35//3 39//3 108//3
f 113//57 114//57 110//57
f 109//57 113//57 110//57
f 37//3 33//3 110//3
f 114//3 37//3 110//3
f 58//3 112//3 39//3
f 114//3 57//3 37//3
f 60//3 115//3 58//3
f 115//3 116//3 58//3
f 116//3 112//3 58//3
f 114//3 117//3 57//3
f 117//3 59//3 57//3
f 118//56 111//56 112//56
f 116//58 118//58 112//58
f 119//59 117//59 114//59
f 113//59 119//59 114//59
f 62//3 120//3 60//3
f 120//3 115//3 60//3
f 117//3 121//3 59//3
f 121//3 61//3 59//3
f 64//3 122//3 62//3
f 122//3 120//3 62//3
f 121//3 123//3 61//3
f 123//3 63//3 61//3
f 66//3 124//3 64//3
f 124//3 122//3 64//3
f 123//3 125//3 63//3
f 125//3 65//3 63//3
f 126//58 118//58 116//58
f 115//60 126//60 116//60
f 127//61 121//61 117//61
f 119//61 127//61 117//61
f 68//3 128//3 66//3
f 128//3 124//3 66//3
f 125//3 129//3 65//3
f 129//3 67//3 65//3
f 70//3 130//3 68//3
f 130//3 128//3 68//3
f 129//3 131//3 67//3
f 131//3 69//3 67//3
f 72//3 132//3 70//3
f 132//3 130//3 70//3
f 131//3 133//3 69//3
f 133//3 71//3 69//3
f 73//3 134//3 72//3
f 134//3 132//3 72//3
f 133//3 135//3 71//3
f 135//3 73//3 71//3
f 135//3 134//3 73//3
f 136//60 126//60 115//60
f 120//62 136//62 115//62
f 137//63 123//63 121//63
f 127//63 137//63 121//63
f 138//62 136//62 120//62
f 122//64 138//64 120//64
f 139//65 125//65 123//65
f 137//65 139//65 123//65
f 140//64 138//64 122//64
f 124//66 140//66 122//66
f 141//67 129//67 125//67
f 139//67 141//67 125//67
f 142//66 140//66 124//66
f 128//68 142//68 124//68
f 143//69 131//69 129//69
f 141//69 143//69 129//69
f 144//68 142//68 128//68
f 130//70 144//70 128//70
f 145//71 133//71 131//71
f 143//71 145//71 131//71
f 146//70 144//70 130//70
f 132//72 146//72 130//72
f 147//73 135//73 133//73
f 145//73 147//73 133//73
f 148//72 146//72 132//72
f 134//74 148//74 132//74
f 147//75 149//75 135//75
f 149//75 134//75 135//75
f 149//74 148//74 134//74
f 150//76 74//76 77//76
f 151//76 150//76 77//76
f 79//76 151//76 77//76
f 152//76 151//76 79//76
f 83//76 152//76 79//76
f 153//76 81//76 74//76
f 150//76 153//76 74//76
f 154//76 152//76 83//76
f 87//76 154//76 83//76
f 155//76 85//76 81//76
f 153//76 155//76 81//76
f 156//76 154//76 87//76
f 91//76 156//76 87//76
f 157//76 89//76 85//76
f 155//76 157//76 85//76
f 158//77 153//77 150//77
f 151//2 159//2 150//2
f 159//77 158//77 150//77
f 152//78 160//78 151//78
f 160//2 159//2 151//2
f 158//5 161//5 153//5
f 161//5 155//5 153//5
f 154//6 162//6 152//6
f 162//78 160//78 152//78
f 161//7 163//7 155//7
f 163//7 157//7 155//7
f 164//76 156//76 91//76
f 95//76 164//76 91//76
f 165//76 93//76 89//76
f 157//76 165//76 89//76
f 156//8 166//8 154//8
f 166//6 162//6 154//6
f 163//9 167//9 157//9
f 167//9 165//9 157//9
f 168//76 164//76 95//76
f 99//76 168//76 95//76
f 169//76 97//76 93//76
f 165//76 169//76 93//76
f 164//10 170//10 156//10
f 170//8 166//8 156//8
f 167//11 171//11 165//11
f 171//11 169//11 165//11
f 172//76 168//76 99//76
f 103//76 172//76 99//76
f 173//76 101//76 97//76
f 169//76 173//76 97//76
f 168//79 174//79 164//79
f 174//10 170//10 164//10
f 171//80 175//80 169//80
f 175//80 173//80 169//80
f 172//14 176//14 168//14
f 176//79 174//79 168//79
f 175//15 177//15 173//15
f 177//15 178//15 173//15
f 178//76 101//76 173//76
f 179//76 172//76 103//76
f 107//76 179//76 103//76
f 178//76 105//76 101//76
f 179//16 180//16 172//16
f 180//14 176//14 172//14
f 177//17 181//17 178//17
f 181//17 182//17 178//17
f 182//76 105//76 178//76
f 183//76 179//76 107//76
f 111//76 183//76 107//76
f 182//76 109//76 105//76
f 183//81 184//81 179//81
f 184//16 180//16 179//16
f 181//82 185//82 182//82
f 185//82 186//82 182//82
f 186//76 109//76 182//76
f 118//76 183//76 111//76
f 186//76 113//76 109//76
f 185//83 187//83 186//83
f 187//83 188//83 186//83
f 188//76 119//76 186//76
f 119//76 113//76 186//76
f 189//84 190//84 183//84
f 190//81 184//81 183//81
f 118//76 189//76 183//76
f 126//76 189//76 118//76
f 191//22 192//22 189//22
f 192//84 190//84 189//84
f 126//76 191//76 189//76
f 187//23 193//23 188//23
f 193//23 194//23 188//23
f 194//76 127//76 188//76
f 127//76 119//76 188//76
f 136//76 191//76 126//76
f 195//24 196//24 191//24
f 196//22 192//22 191//22
f 136//76 195//76 191//76
f 193//25 197//25 194//25
f 197//25 198//25 194//25
f 198//76 137//76 194//76
f 137//76 127//76 194//76
f 138//76 195//76 136//76
f 199//85 200//85 195//85
f 200//24 196//24 195//24
f 138//76 199//76 195//76
f 197//86 201//86 198//86
f 201//86 202//86 198//86
f 202//76 139//76 198//76
f 139//76 137//76 198//76
f 203//28 204//28 199//28
f 204//85 200//85 199//85
f 138//76 140//76 199//76
f 140//76 203//76 199//76
f 201//29 205//29 202//29
f 205//29 206//29 202//29
f 206//76 141//76 202//76
f 141//76 139//76 202//76
f 207//30 208//30 203//30
f 208//28 204//28 203//28
f 140//76 142//76 203//76
f 142//76 207//76 203//76
f 205//31 209//31 206//31
f 209//31 210//31 206//31
f 210//76 143//76 206//76
f 143//76 141//76 206//76
f 211//32 212//32 207//32
f 212//30 208//30 207//30
f 142//76 144//76 207//76
f 144//76 211//76 207//76
f 209//33 213//33 210//33
f 213//33 214//33 210//33
f 214//76 145//76 210//76
f 145//76 143//76 210//76
f 215//34 216//34 211//34
f 216//32 212//32 211//32
f 144//76 146//76 211//76
f 146//76 215//76 211//76
f 213//35 217//35 214//35
f 217//35 218//35 214//35
f 218//76 147//76 214//76
f 147//76 145//76 214//76
f 219//87 220//87 215//87
f 220//34 216//34 215//34
f 146//76 148//76 215//76
f 148//76 219//76 215//76
f 217//88 221//88 218//88
f 221//88 219//88 218//88
f 219//76 149//76 218//76
f 149//76 147//76 218//76
f 221//87 220//87 219//87
f 148//76 149//76 219//76
f 222//76 158//76 159//76
f 160//76 222//76 159//76
f 162//76 222//76 160//76
f 222//76 161//76 158//76
f 166//76 222//76 162//76
f 222//76 163//76 161//76
f 170//76 222//76 166//76
f 222//76 167//76 163//76
f 174//76 222//76 170//76
f 222//76 171//76 167//76
f 176//76 222//76 174//76
f 222//76 175//76 171//76
f 180//76 222//76 176//76
f 222//76 177//76 175//76
f 184//76 222//76 180//76
f 222//76 181//76 177//76
f 190//76 222//76 184//76
f 222//76 185//76 181//76
f 222//76 187//76 185//76
f 216//76 220//76 222//76
f 220//76 221//76 222//76
f 221//76 217//76 222//76
f 204//76 208//76 222//76
f 208//76 212//76 222//76
f 212//76 216//76 222//76
f 192//76 196//76 222//76
f 196//76 200//76 222//76
f 200//76 204//76 222//76
f 190//76 192//76 222//76
f 193//76 187//76 222//76
f 205//76 201//76 222//76
f 201//76 197//76 222//76
f 197//76 193//76 222//76
f 217//76 213//76 222//76
f 213//76 209//76 222//76
f 209//76 205//76 222//76
